inDegrees=no
num_controls=7
num_derivatives=13
num_iterations=77
num_multipliers=7
num_parameters=0
num_slacks=7
num_states=26
objective=0.503253
objective_accelerations=0.009676
objective_balance=0.002400
objective_effort=0.027025
objective_height=0.458625
objective_ligament=0.005525
solver_duration=1039.706382
status=Solve_Succeeded
success=true
DataType=double
version=3
OpenSimVersion=4.5
endheader
time	/jointset/ground_pelvis/pelvis_tilt/value	/jointset/ground_pelvis/pelvis_tx/value	/jointset/ground_pelvis/pelvis_ty/value	/jointset/hip_r/hip_flexion_r/value	/jointset/hip_r/hip_adduction_r/value	/jointset/hip_r/hip_rotation_r/value	/jointset/back/lumbar_extension/value	/jointset/patellofemoral_r/patellar_flexion_r/value	/jointset/knee_r/knee_flexion_r/value	/jointset/knee_r/knee_adduction_r/value	/jointset/knee_r/knee_rotation_r/value	/jointset/ankle_r/ankle_angle_r/value	/jointset/subtalar_r/subtalar_angle_r/value	/jointset/ground_pelvis/pelvis_tilt/speed	/jointset/ground_pelvis/pelvis_tx/speed	/jointset/ground_pelvis/pelvis_ty/speed	/jointset/hip_r/hip_flexion_r/speed	/jointset/hip_r/hip_adduction_r/speed	/jointset/hip_r/hip_rotation_r/speed	/jointset/back/lumbar_extension/speed	/jointset/patellofemoral_r/patellar_flexion_r/speed	/jointset/knee_r/knee_flexion_r/speed	/jointset/knee_r/knee_adduction_r/speed	/jointset/knee_r/knee_rotation_r/speed	/jointset/ankle_r/ankle_angle_r/speed	/jointset/subtalar_r/subtalar_angle_r/speed	/forceset/tau_hip_flexion_r	/forceset/tau_hip_adduction_r	/forceset/tau_hip_rotation_r	/forceset/tau_knee_flexion_r	/forceset/tau_ankle_angle_r	/forceset/tau_subtalar_angle_r	/forceset/tau_lumbar_extension	lambda_cid13_p0	lambda_cid14_p0	lambda_cid14_p1	lambda_cid14_p2	lambda_cid14_p3	lambda_cid14_p4	lambda_cid14_p5	/jointset/ground_pelvis/pelvis_tilt/accel	/jointset/ground_pelvis/pelvis_tx/accel	/jointset/ground_pelvis/pelvis_ty/accel	/jointset/hip_r/hip_flexion_r/accel	/jointset/hip_r/hip_adduction_r/accel	/jointset/hip_r/hip_rotation_r/accel	/jointset/back/lumbar_extension/accel	/jointset/patellofemoral_r/patellar_flexion_r/accel	/jointset/knee_r/knee_flexion_r/accel	/jointset/knee_r/knee_adduction_r/accel	/jointset/knee_r/knee_rotation_r/accel	/jointset/ankle_r/ankle_angle_r/accel	/jointset/subtalar_r/subtalar_angle_r/accel	gamma_cid13_p0	gamma_cid14_p0	gamma_cid14_p1	gamma_cid14_p2	gamma_cid14_p3	gamma_cid14_p4	gamma_cid14_p5
1.5	0.1565944095537604	0.1565352353816751	0.938001135283264	0.07555579786263936	-0.2258560120983119	-0.2032431768734067	-0.2358908952879369	0.3342296073749115	0.3342296073749402	0.09763381958618465	0.1742517016240099	0.2593114170330023	0.06229911054770341	-0.5031181408136085	-0.1031437295724981	0.05826714864996589	0.1938713593530361	0.03718690883293495	-0.182069578268432	0.6696027746950072	-0.8746925322432281	-0.8746925322432344	0.1192407568177247	-0.001142250608339542	-0.6193158592871058	-0.1326520577135172	0.1128812570467638	-0.03962138580007741	-0.005902025663615316	-0.2857532732126455	0.01253148677436906	-0.03079237593808345	0.0008675148666269471	-43.00747676287409	-40.17829838547328	-15.48358424956008	-2.696458862960323	10.64994876474289	-687.0063541924206	58.27950060164846	-0.3619321633283081	-0.1577762742978808	-0.1714855190118734	0.1843787429724781	-0.03478674151099866	-0.233048658082178	0.5076590221672863	-0.5847709290686604	-0.5847709290686632	0.3062319485158453	-0.003545682972132815	-0.4934240072699624	-0.09908744019784428	5.253204969635038e-08	3.428393697213097e-08	-5.429357717260296e-07	4.306477233958108e-07	3.288208938065766e-08	4.364862483514816e-08	-7.009630293465249e-07
1.51	0.1515459220482989	0.1554960907368657	0.9385750654142545	0.0775031246291588	-0.2254864263274324	-0.205075467653574	-0.2291703110380764	0.3254545614691807	0.3254545614691999	0.09884251024792591	0.1742405892463023	0.2530942994513466	0.06096714623590978	-0.5065021699728111	-0.1046681373128791	0.05650331761108622	0.1955533622433388	0.03671250266483256	-0.1843793691153667	0.6744313138897855	-0.8801901972034176	-0.8801901972034551	0.1225121965255511	-0.001066713514062273	-0.6240194045111139	-0.1337354976311076	0.1129340292669468	-0.04177496714979017	-0.006203943304388765	-0.2838625605758943	0.01798968777467419	-0.03165459350321267	-0.0001714200616323032	-43.02605212628264	-38.41623412988876	-15.47078195852507	-2.788438284535559	9.841142547890097	-685.9810011026003	58.64202834465395	-0.3150576041279441	-0.1472067766756528	-0.1811549227179828	0.1540186445468165	-0.0563999772996303	-0.2284899360338752	0.4580371600296088	-0.5133077942108294	-0.5133077942154796	0.3397856039578054	0.01519928838364343	-0.445570737334785	-0.1122131539252026	5.505069928534432e-08	3.652210712333361e-08	-5.696244795301876e-07	4.510027901466951e-07	3.406786772631388e-08	5.102226812456691e-08	-7.357692141784439e-07
1.52	0.1464659103888627	0.1544422152640991	0.9391308926295775	0.07946605294107863	-0.2251221111028019	-0.2069305654698176	-0.2224039242378889	0.3166283302109049	0.3166283302109144	0.1000843524311539	0.1742306514160886	0.2468327962259771	0.05962449934766315	-0.5094229716084813	-0.1060898951639602	0.05464656551649302	0.1969916684331476	0.03613279958314419	-0.1866309854836918	0.6787632847604251	-0.8849296027522757	-0.884929602752344	0.1258710611150481	-0.0009073411095492194	-0.6281929880298632	-0.1347885730041217	0.1129868014871515	-0.04392854849950286	-0.006505860945162927	-0.2819718479391428	0.02344788877497943	-0.03251681106834174	-0.001210354989891261	-43.03412798279552	-36.65716217880664	-15.45707060522829	-2.882199585351644	9.030458157890926	-685.0062362376384	59.03713789918509	-0.2692866586218173	-0.1372462964378988	-0.1900697301545768	0.1356394028736886	-0.05584612422770816	-0.2214137623602501	0.4083453573395311	-0.4331190468023187	-0.4331190468023134	0.3237169248499709	0.01322137907465564	-0.3874316662181651	-0.0930145312827112	5.842094242182319e-08	3.962954197096892e-08	-6.008412470082802e-07	4.765988414832699e-07	3.529301461427356e-08	5.9668958190967e-08	-7.757827882783206e-07
1.53	0.1413591024448442	0.1533746422685506	0.9396677133381467	0.08144203589859582	-0.2247641600938517	-0.2088076008812283	-0.2155967782730996	0.3077584850798941	0.3077584850799087	0.1013603586718367	0.1742224608473671	0.240532209028117	0.05827142055959523	-0.5118553180195666	-0.1074071529182257	0.05270378482301169	0.1981639195978319	0.03543961033695931	-0.1887379659761539	0.6825787616002306	-0.8889042648747971	-0.8889042648747973	0.1293465991891089	-0.0007441500370726677	-0.6318304230359939	-0.1358209865732209	0.1130075346073711	-0.04612726601309787	-0.006803109697061247	-0.2800707045614152	0.02892734868629161	-0.03344464820989951	-0.002226742419781382	-43.03156330052017	-34.89464632042002	-15.47513090501175	-2.966467994540996	8.223913450523145	-684.0287137601972	59.38446076301646	-0.2177113677026714	-0.1263254131249917	-0.1984359408128139	0.1018702979947808	-0.07869201249081714	-0.1995366497898074	0.3550768577110824	-0.35937900565348	-0.3593790056431231	0.3618929652516896	0.01594169970945334	-0.3377825986326465	-0.107466043685284	6.269600370250481e-08	4.366057055856391e-08	-6.368690778899287e-07	5.077634389421407e-07	3.655999057843069e-08	6.966826045790979e-08	-8.213292134754022e-07
1.54	0.136230470489644	0.1522944247158186	0.9401846954994075	0.08342851183270547	-0.2244136683148987	-0.2107045453889837	-0.2087540919378302	0.2988529454855229	0.2988529454855431	0.1026716044365737	0.1742155169350453	0.2341980708440312	0.05690819538104398	-0.5137877738447605	-0.1086188066006581	0.05067885605481952	0.199090263751679	0.03464095358369674	-0.1906128047526409	0.6858713588564385	-0.8920684954243754	-0.8920684954243079	0.1329189659258719	-0.000658009829573915	-0.6349031852750097	-0.1368178511007906	0.1130282677275907	-0.04832598352666902	-0.007100358448960441	-0.2781695611836875	0.0344068085976038	-0.03437248535145724	-0.003243129849671532	-43.01822777416864	-33.13407923209146	-15.49174563813368	-3.05300811808542	7.409476296502385	-683.0896849929181	59.76678803634634	-0.1693085414434698	-0.1161254820712621	-0.2064993450961725	0.086458000706622	-0.07693962564325164	-0.1749854191652387	0.3037694406200438	-0.2710327322136665	-0.2710327322143485	0.3430826573904239	-0.002188793919880862	-0.2744971127951715	-0.08590472297680735	6.682191999569702e-08	4.741437392261476e-08	-6.716513269059169e-07	5.365049364355234e-07	3.779004330297029e-08	7.976829385695342e-08	-8.633772857954649e-07
